<svg version="1.1" id="Layer_1" xmlns="http://www.w3.org/2000/svg" xmlns:xlink="http://www.w3.org/1999/xlink" x="0px" y="0px"
	 width="100%" viewBox="0 0 1201 1201" enable-background="new 0 0 1201 1201" xml:space="preserve">
<path fill="#FFFFFF" opacity="1.000000" stroke="none" 
	d="
M830.000000,1202.000000 
	C553.333313,1202.000000 277.166656,1202.000000 1.000000,1202.000000 
	C1.000000,801.666687 1.000000,401.333344 1.000000,1.000000 
	C401.333344,1.000000 801.666687,1.000000 1202.000000,1.000000 
	C1202.000000,401.333344 1202.000000,801.666687 1202.000000,1202.000000 
	C1078.166626,1202.000000 954.333313,1202.000000 830.000000,1202.000000 
M299.020844,766.867310 
	C298.016815,777.808350 297.573517,788.837952 295.864746,799.667786 
	C293.795959,812.779480 291.467834,825.954712 287.817078,838.691223 
	C279.465332,867.828003 262.318573,890.936035 237.329880,908.162903 
	C221.480820,919.089172 204.148758,927.082947 186.298080,934.078430 
	C185.022614,934.578247 183.205643,935.921570 183.153244,936.949829 
	C182.851715,942.866394 183.006348,948.806213 183.006348,954.683167 
	C268.323151,954.683167 353.038269,954.683167 438.000000,954.683167 
	C438.000000,949.223022 437.819672,944.069031 438.068329,938.935791 
	C438.215240,935.903503 437.007355,934.916565 434.257233,933.862732 
	C424.001129,929.932617 413.547150,926.246704 403.884125,921.118652 
	C394.490356,916.133423 385.847626,909.672791 377.125580,903.505737 
	C372.293793,900.089294 367.837494,896.096313 363.477356,892.075439 
	C360.926483,889.723022 358.757507,886.909485 356.662781,884.118774 
	C351.718658,877.531860 346.027588,871.295288 342.299194,864.061218 
	C337.966583,855.654785 334.978241,846.466187 332.190521,837.376587 
	C329.011078,827.009949 325.900360,816.503784 324.215820,805.828491 
	C322.302734,793.704590 321.893372,781.333557 321.077362,769.053528 
	C320.879639,766.077576 320.018585,764.853394 316.967712,764.959778 
	C311.311188,765.157227 305.646179,765.111206 299.467529,765.095764 
	C299.367218,765.391113 299.266937,765.686401 299.020844,766.867310 
M402.998993,462.498688 
	C413.856354,472.691864 424.731964,482.865692 435.566315,493.083313 
	C448.098663,504.902313 460.617798,516.735596 473.100464,528.607056 
	C487.756012,542.544983 502.329285,556.569519 517.008484,570.482361 
	C527.214050,580.155151 537.576233,589.662476 547.799927,599.316345 
	C561.172424,611.943542 574.464233,624.656433 587.815491,637.306335 
	C599.836731,648.696106 611.903931,660.037354 623.927795,671.424500 
	C637.039978,683.842224 650.116333,696.297852 663.225464,708.718933 
	C675.488220,720.338196 687.777588,731.929260 700.047302,743.541260 
	C712.679810,755.496521 725.300232,767.464539 737.930542,779.422241 
	C750.318970,791.150940 762.730530,802.855286 775.100159,814.603821 
	C789.160706,827.958496 803.159729,841.378174 817.234802,854.717529 
	C828.407959,865.306824 839.679749,875.791992 850.863708,886.369995 
	C864.104919,898.893738 877.333679,911.431030 890.502075,924.031189 
	C900.938660,934.017334 911.227173,944.158508 921.695007,954.111450 
	C924.024719,956.326538 926.646179,959.316589 929.454895,959.722229 
	C935.431702,960.585388 941.619751,959.986023 948.000000,959.986023 
	C948.000000,957.436523 948.000000,955.462402 948.000000,953.488220 
	C948.000000,797.328430 947.963013,641.168640 948.044312,485.008850 
	C948.055115,464.248444 948.400757,443.479279 949.111084,422.731964 
	C949.469238,412.267609 950.815979,401.822632 952.026123,391.404968 
	C954.409546,370.887848 960.465332,351.471832 970.312683,333.297333 
	C979.104370,317.071198 991.331848,303.814575 1006.185913,293.002625 
	C1023.864197,280.135010 1043.596680,271.165405 1063.765137,263.358032 
	C1063.765137,256.622803 1063.765137,250.013458 1063.765137,243.264954 
	C978.803650,243.264954 894.077332,243.264954 809.001404,243.264954 
	C809.001404,249.156448 808.827087,254.799606 809.135803,260.416199 
	C809.204712,261.668884 810.724426,263.323212 811.993286,263.955170 
	C826.924316,271.391876 842.247375,278.102264 856.837219,286.146393 
	C871.603638,294.287903 883.988770,305.586060 894.033936,319.260895 
	C906.228943,335.862335 914.510925,354.273407 918.109497,374.529816 
	C920.901367,390.245453 924.625854,406.121948 924.699402,421.941986 
	C925.251343,540.767517 925.001099,659.596741 924.983154,778.424866 
	C924.982971,779.610168 924.730469,780.795471 924.536133,782.505066 
	C916.737183,775.241577 909.449585,768.531982 902.250549,761.728577 
	C894.416382,754.324951 886.651001,746.848328 878.879456,739.378784 
	C861.294373,722.477173 843.727478,705.556458 826.145935,688.651184 
	C818.015625,680.833618 809.864929,673.037231 801.728821,665.225647 
	C784.855713,649.025818 767.985046,632.823425 751.115601,616.619629 
	C742.620850,608.460083 734.131653,600.294739 725.638855,592.133057 
	C708.533203,575.694214 691.427368,559.255554 674.320496,542.817932 
	C657.333740,526.495789 640.348206,510.172394 623.357361,493.854462 
	C606.727112,477.882782 590.088318,461.919983 573.458069,445.948303 
	C556.467285,429.630371 539.482300,413.306366 522.494812,396.985016 
	C505.387115,380.548187 488.279144,364.111633 471.171844,347.674438 
	C462.678284,339.513489 454.183380,331.354034 445.693695,323.189056 
	C428.114014,306.281708 410.591461,289.314301 392.931396,272.491364 
	C386.369293,266.240326 379.587128,260.209534 372.726624,254.285233 
	C364.329834,247.034317 354.578705,243.008484 343.363464,243.006317 
	C277.199707,242.993500 211.035950,243.000000 144.872192,243.000000 
	C143.291931,243.000000 141.711670,243.000000 140.000412,243.000000 
	C140.000412,249.068344 140.178543,254.404083 139.928207,259.719666 
	C139.795258,262.542694 141.115326,263.588898 143.474945,263.962189 
	C146.053726,264.370178 148.649002,264.679199 151.241714,264.993073 
	C170.934708,267.377350 188.855972,274.580597 205.543793,285.063049 
	C228.601685,299.546875 248.305130,318.120605 268.075256,336.598572 
	C275.463074,343.503540 282.468323,350.840302 290.115417,357.438477 
	C296.536621,362.978912 299.349365,368.922821 299.256195,377.875275 
	C298.727203,428.700867 299.000000,479.534821 299.000000,530.365906 
	C299.000000,532.138672 299.000000,533.911438 299.000000,535.688110 
	C306.956818,535.688110 314.353241,535.688110 322.264160,535.688110 
	C322.264160,485.720520 322.264160,436.063080 322.264160,386.275452 
	C334.844574,398.004364 347.137329,409.347015 359.296143,420.831451 
	C373.756958,434.490295 388.102722,448.270905 402.998993,462.498688 
z"/>
<path fill="#D41B2C" opacity="1.000000" stroke="none" 
	d="
M402.748657,462.248718 
	C388.102722,448.270905 373.756958,434.490295 359.296143,420.831451 
	C347.137329,409.347015 334.844574,398.004364 322.264160,386.275452 
	C322.264160,436.063080 322.264160,485.720520 322.264160,535.688110 
	C314.353241,535.688110 306.956818,535.688110 299.000000,535.688110 
	C299.000000,533.911438 299.000000,532.138672 299.000000,530.365906 
	C299.000000,479.534821 298.727203,428.700867 299.256195,377.875275 
	C299.349365,368.922821 296.536621,362.978912 290.115417,357.438477 
	C282.468323,350.840302 275.463074,343.503540 268.075256,336.598572 
	C248.305130,318.120605 228.601685,299.546875 205.543793,285.063049 
	C188.855972,274.580597 170.934708,267.377350 151.241714,264.993073 
	C148.649002,264.679199 146.053726,264.370178 143.474945,263.962189 
	C141.115326,263.588898 139.795258,262.542694 139.928207,259.719666 
	C140.178543,254.404083 140.000412,249.068344 140.000412,243.000000 
	C141.711670,243.000000 143.291931,243.000000 144.872192,243.000000 
	C211.035950,243.000000 277.199707,242.993500 343.363464,243.006317 
	C354.578705,243.008484 364.329834,247.034317 372.726624,254.285233 
	C379.587128,260.209534 386.369293,266.240326 392.931396,272.491364 
	C410.591461,289.314301 428.114014,306.281708 445.693695,323.189056 
	C454.183380,331.354034 462.678284,339.513489 471.171844,347.674438 
	C488.279144,364.111633 505.387115,380.548187 522.494812,396.985016 
	C539.482300,413.306366 556.467285,429.630371 573.458069,445.948303 
	C590.088318,461.919983 606.727112,477.882782 623.357361,493.854462 
	C640.348206,510.172394 657.333740,526.495789 674.320496,542.817932 
	C691.427368,559.255554 708.533203,575.694214 725.638855,592.133057 
	C734.131653,600.294739 742.620850,608.460083 751.115601,616.619629 
	C767.985046,632.823425 784.855713,649.025818 801.728821,665.225647 
	C809.864929,673.037231 818.015625,680.833618 826.145935,688.651184 
	C843.727478,705.556458 861.294373,722.477173 878.879456,739.378784 
	C886.651001,746.848328 894.416382,754.324951 902.250549,761.728577 
	C909.449585,768.531982 916.737183,775.241577 924.536133,782.505066 
	C924.730469,780.795471 924.982971,779.610168 924.983154,778.424866 
	C925.001099,659.596741 925.251343,540.767517 924.699402,421.941986 
	C924.625854,406.121948 920.901367,390.245453 918.109497,374.529816 
	C914.510925,354.273407 906.228943,335.862335 894.033936,319.260895 
	C883.988770,305.586060 871.603638,294.287903 856.837219,286.146393 
	C842.247375,278.102264 826.924316,271.391876 811.993286,263.955170 
	C810.724426,263.323212 809.204712,261.668884 809.135803,260.416199 
	C808.827087,254.799606 809.001404,249.156448 809.001404,243.264954 
	C894.077332,243.264954 978.803650,243.264954 1063.765137,243.264954 
	C1063.765137,250.013458 1063.765137,256.622803 1063.765137,263.358032 
	C1043.596680,271.165405 1023.864197,280.135010 1006.185913,293.002625 
	C991.331848,303.814575 979.104370,317.071198 970.312683,333.297333 
	C960.465332,351.471832 954.409546,370.887848 952.026123,391.404968 
	C950.815979,401.822632 949.469238,412.267609 949.111084,422.731964 
	C948.400757,443.479279 948.055115,464.248444 948.044312,485.008850 
	C947.963013,641.168640 948.000000,797.328430 948.000000,953.488220 
	C948.000000,955.462402 948.000000,957.436523 948.000000,959.986023 
	C941.619751,959.986023 935.431702,960.585388 929.454895,959.722229 
	C926.646179,959.316589 924.024719,956.326538 921.695007,954.111450 
	C911.227173,944.158508 900.938660,934.017334 890.502075,924.031189 
	C877.333679,911.431030 864.104919,898.893738 850.863708,886.369995 
	C839.679749,875.791992 828.407959,865.306824 817.234802,854.717529 
	C803.159729,841.378174 789.160706,827.958496 775.100159,814.603821 
	C762.730530,802.855286 750.318970,791.150940 737.930542,779.422241 
	C725.300232,767.464539 712.679810,755.496521 700.047302,743.541260 
	C687.777588,731.929260 675.488220,720.338196 663.225464,708.718933 
	C650.116333,696.297852 637.039978,683.842224 623.927795,671.424500 
	C611.903931,660.037354 599.836731,648.696106 587.815491,637.306335 
	C574.464233,624.656433 561.172424,611.943542 547.799927,599.316345 
	C537.576233,589.662476 527.214050,580.155151 517.008484,570.482361 
	C502.329285,556.569519 487.756012,542.544983 473.100464,528.607056 
	C460.617798,516.735596 448.098663,504.902313 435.566315,493.083313 
	C424.731964,482.865692 413.856354,472.691864 402.748657,462.248718 
z"/>
<path fill="#D41B2C" opacity="1.000000" stroke="none" 
	d="
M299.984680,765.166565 
	C305.646179,765.111206 311.311188,765.157227 316.967712,764.959778 
	C320.018585,764.853394 320.879639,766.077576 321.077362,769.053528 
	C321.893372,781.333557 322.302734,793.704590 324.215820,805.828491 
	C325.900360,816.503784 329.011078,827.009949 332.190521,837.376587 
	C334.978241,846.466187 337.966583,855.654785 342.299194,864.061218 
	C346.027588,871.295288 351.718658,877.531860 356.662781,884.118774 
	C358.757507,886.909485 360.926483,889.723022 363.477356,892.075439 
	C367.837494,896.096313 372.293793,900.089294 377.125580,903.505737 
	C385.847626,909.672791 394.490356,916.133423 403.884125,921.118652 
	C413.547150,926.246704 424.001129,929.932617 434.257233,933.862732 
	C437.007355,934.916565 438.215240,935.903503 438.068329,938.935791 
	C437.819672,944.069031 438.000000,949.223022 438.000000,954.683167 
	C353.038269,954.683167 268.323151,954.683167 183.006348,954.683167 
	C183.006348,948.806213 182.851715,942.866394 183.153244,936.949829 
	C183.205643,935.921570 185.022614,934.578247 186.298080,934.078430 
	C204.148758,927.082947 221.480820,919.089172 237.329880,908.162903 
	C262.318573,890.936035 279.465332,867.828003 287.817078,838.691223 
	C291.467834,825.954712 293.795959,812.779480 295.864746,799.667786 
	C297.573517,788.837952 298.016815,777.808350 299.269714,766.332703 
	C299.737823,765.634644 299.893158,765.424133 299.984680,765.166565 
z"/>
<path fill="#D41B2C" opacity="1.000000" stroke="none" 
	d="
M299.726105,765.131165 
	C299.893158,765.424133 299.737823,765.634644 299.342621,765.889893 
	C299.266937,765.686401 299.367218,765.391113 299.726105,765.131165 
z"/>
</svg>